<svg id="Calque_1" data-name="Calque 1" xmlns="http://www.w3.org/2000/svg" viewBox="0 0 334 106"><defs><style>.cls-1{fill:transparent;}.cls-2{fill:#294c5a;}.cls-3{fill:#2a4d5b;}.cls-4{fill:transparent;}.cls-5{fill:#305260;}.cls-6{fill:transparent;}.cls-7{fill:transparent;}</style></defs><path class="cls-1" d="M140,391V344H251c-3.27,2.33-4.28,5.48-4.11,9.46.27,6.09.07,12.2.07,18.43-20.15-6.47-31.67-3.7-40.31,9.45a30.27,30.27,0,0,0,2.52,36.17c9.43,10.9,22.46,12.85,37.89,5.46,1.9,3.37,4.62,5.69,8.83,4.08s4.18-5.42,4.17-9.19c-.05-21.64-.11-43.28.06-64.92,0-3.87-1.07-6.73-4.12-8.94h15c-3.15,2.65-4,6-3.94,10.1.17,19.78.07,39.56.08,59.34a61.15,61.15,0,0,0,.19,8.46,6.14,6.14,0,0,0,6.52,5.65,6.26,6.26,0,0,0,6.61-5.57,24.67,24.67,0,0,0,.2-4.47c0-21.11.17-42.22-.16-63.33-.05-3.41-2.28-6.79-3.5-10.18H474v48c-.29-.36-.74-.67-.84-1.08-4-15.09-17.26-25-31.53-23.43-16.33,1.77-27.29,13.19-27.74,29.75-.39,14.63.05,29.27-.13,43.91-.05,3.87,1,6.75,4.24,8.85H140V404c.3.36.75.67.89,1.08,7.16,21,23.8,27.93,42.08,19,4.5,1.3,7.7,3.26,10.5,2.8,4.47-.73,4.42-5.06,4.4-8.84,0-6.49.15-13,.08-19.45-.19-15.62-10.36-28.56-24-30.68-15.37-2.38-27.53,5.55-33,21.48A8,8,0,0,1,140,391Zm210.12,17.68c3.6,3.64,6.86,7.49,10.66,10.69,9.14,7.67,19.6,9.13,30.37,4.35s16.38-13.4,16.81-25.12a28.07,28.07,0,0,0-17-27,28.37,28.37,0,0,0-31.85,5.94c-10.37,10.13-20.57,20.43-30.8,30.71-3.87,3.89-8.39,6-13.91,5.31a15.89,15.89,0,0,1-6.11-29.59,15.42,15.42,0,0,1,18.52,2c3.36,3.13,6.08,7,9,10.42l9.85-9.9c-4.11-3.88-7.93-8.09-12.34-11.54-10-7.84-23.6-7.8-34-.37A28.65,28.65,0,0,0,289.08,407c6.79,19.84,32,25.78,47.33,11,10.55-10.18,20.74-20.74,31.2-31,6.92-6.81,16.86-6.88,23.21-.38a16,16,0,0,1,.06,22.11c-6.43,6.65-16.12,6.66-23.15-.19-3-2.89-5.55-6.17-8.52-9.5Z" transform="translate(-140 -344)"/><path class="cls-2" d="M256,344c3.05,2.21,4.15,5.07,4.12,8.94-.17,21.64-.11,43.28-.06,64.92,0,3.77.15,7.54-4.17,9.19s-6.93-.71-8.83-4.08c-15.43,7.39-28.46,5.44-37.89-5.46a30.27,30.27,0,0,1-2.52-36.17c8.64-13.15,20.16-15.92,40.31-9.45,0-6.23.2-12.34-.07-18.43-.17-4,.84-7.13,4.11-9.46Zm-9,53.64c-.05-9.27-7.32-16.75-16.19-16.67S214.9,388.66,215,398c.1,9,7.22,16.38,15.9,16.42S247,406.86,247,397.64Z" transform="translate(-140 -344)"/><path class="cls-2" d="M418,450c-3.2-2.1-4.29-5-4.24-8.85.18-14.64-.26-29.28.13-43.91.45-16.56,11.41-28,27.74-29.75,14.27-1.54,27.54,8.34,31.53,23.43.1.41.55.72.84,1.08v12c-.67,1.45-1.37,2.89-2,4.36-4.34,10.22-11.87,16.41-22.8,18.78-7.91,1.72-15-.42-22.23-4,0,5.88-.25,11.36.08,16.81.25,4.14-.87,7.41-4.05,10Zm25-69c-9,0-15.88,7.26-16,16.93-.08,9.07,6.93,16.7,15.52,16.91s16.29-7.65,16.37-16.79C459,388.58,451.89,381,443,381Z" transform="translate(-140 -344)"/><path class="cls-3" d="M140,391a8,8,0,0,0,1-1.57c5.45-15.93,17.61-23.86,33-21.48,13.61,2.12,23.78,15.06,24,30.68.07,6.48-.12,13-.08,19.45,0,3.78.07,8.11-4.4,8.84-2.8.46-6-1.5-10.5-2.8-18.28,8.89-34.92,2-42.08-19-.14-.41-.59-.72-.89-1.08Zm29.25-10.2c-9.1,0-15.56,7.09-15.52,17.11,0,9.66,6.52,16.81,15.32,16.9,9,.09,15.92-7.28,15.94-16.93S178.22,380.84,169.25,380.8Z" transform="translate(-140 -344)"/><path class="cls-4" d="M423,450c3.18-2.6,4.3-5.87,4.05-10-.33-5.45-.08-10.93-.08-16.81,7.23,3.54,14.32,5.68,22.23,4,10.93-2.37,18.46-8.56,22.8-18.78.63-1.47,1.33-2.91,2-4.36v46Z" transform="translate(-140 -344)"/><path class="cls-5" d="M277,344c1.22,3.39,3.45,6.77,3.5,10.18.33,21.11.17,42.22.16,63.33a24.67,24.67,0,0,1-.2,4.47,6.26,6.26,0,0,1-6.61,5.57,6.14,6.14,0,0,1-6.52-5.65,61.15,61.15,0,0,1-.19-8.46c0-19.78.09-39.56-.08-59.34,0-4.08.79-7.45,3.94-10.1Z" transform="translate(-140 -344)"/><path class="cls-3" d="M350.12,408.68l9.09-9.65c3,3.33,5.56,6.61,8.52,9.5,7,6.85,16.72,6.84,23.15.19a16,16,0,0,0-.06-22.11c-6.35-6.5-16.29-6.43-23.21.38-10.46,10.27-20.65,20.83-31.2,31-15.35,14.8-40.54,8.86-47.33-11a28.65,28.65,0,0,1,10.33-32.45c10.36-7.43,24-7.47,34,.37,4.41,3.45,8.23,7.66,12.34,11.54l-9.85,9.9c-3-3.47-5.68-7.29-9-10.42a15.42,15.42,0,0,0-18.52-2,15.89,15.89,0,0,0,6.11,29.59c5.52.69,10-1.42,13.91-5.31,10.23-10.28,20.43-20.58,30.8-30.71A28.37,28.37,0,0,1,391,371.56a28.07,28.07,0,0,1,17,27c-.43,11.72-6.18,20.4-16.81,25.12s-21.23,3.32-30.37-4.35C357,416.17,353.72,412.32,350.12,408.68Z" transform="translate(-140 -344)"/><path class="cls-6" d="M247,397.64c.06,9.22-7.23,16.85-16.06,16.8S215.1,407,215,398c-.1-9.36,6.93-17,15.77-17S246.91,388.37,247,397.64Z" transform="translate(-140 -344)"/><path class="cls-7" d="M443,381c8.93,0,16,7.61,15.93,17-.08,9.14-7.74,17-16.37,16.79S426.92,407,427,397.9C427.08,388.23,434,380.94,443,381Z" transform="translate(-140 -344)"/><path class="cls-6" d="M169.25,380.8c9,0,15.77,7.41,15.74,17.08s-7,17-15.94,16.93c-8.8-.09-15.28-7.24-15.32-16.9C153.69,387.89,160.15,380.77,169.25,380.8Z" transform="translate(-140 -344)"/></svg>
