<svg width="100" height="100" viewBox="0 0 100 100" fill="none" xmlns="http://www.w3.org/2000/svg">
<path d="M0 50C0 22.3858 22.3858 0 50 0C77.6142 0 100 22.3858 100 50C100 77.6142 77.6142 100 50 100C22.3858 100 0 77.6142 0 50Z" fill="white"/>
<path opacity="0.5" fill-rule="evenodd" clip-rule="evenodd" d="M83.7465 30.2534C83.786 35.6556 82.2801 41.0798 78.4918 44.9313C74.6755 48.8113 69.2403 50.933 63.8138 50.5185C58.7187 50.1293 54.9118 46.3803 51.2192 42.848C47.4016 39.1963 42.8978 35.5294 42.6283 30.2534C42.3506 24.8149 45.8515 19.9852 49.8633 16.3028C53.691 12.7895 58.619 10.9016 63.8138 10.8076C69.1142 10.7116 74.4841 12.0866 78.2787 15.7885C82.1143 19.5305 83.7073 24.895 83.7465 30.2534Z" fill="#F9BC4B"/>
<path d="M56.0074 61.9513L76.2886 50.5697V79.3038H23.7114V50.5697L43.5758 61.9513" stroke="#213950" stroke-width="2"/>
<path d="M24.1152 79.1L43.101 62.463C46.8285 59.1967 52.3861 59.1534 56.164 62.3613L75.8773 79.1" stroke="#213950" stroke-width="2"/>
<path d="M29.375 53.8615V21.3336C29.375 20.7813 29.8227 20.3336 30.375 20.3336H69.625C70.1773 20.3336 70.625 20.7813 70.625 21.3336V54" stroke="#213950" stroke-width="2"/>
<path d="M23.4122 49.56L29.599 43.373" stroke="#213950" stroke-width="2"/>
<path d="M76.5784 49.56L70.3915 43.373" stroke="#213950" stroke-width="2"/>
<circle cx="42.5" cy="30.5" r="2.5" stroke="#213950" stroke-width="2"/>
<path d="M52 30L65 30" stroke="#213950" stroke-width="2"/>
<path d="M35 46H65" stroke="#213950" stroke-width="2"/>
<path d="M35 51H60" stroke="#213950" stroke-width="2"/>
<path d="M52 34H61" stroke="#213950" stroke-width="2"/>
<path d="M36 41V40C36 37.7909 37.7909 36 40 36H45C47.2091 36 49 37.7909 49 40V41" stroke="#213950" stroke-width="2"/>
</svg>
