<svg width="100" height="100" viewBox="0 0 100 100" fill="none" xmlns="http://www.w3.org/2000/svg">
<path d="M0 50C0 22.3858 22.3858 0 50 0C77.6142 0 100 22.3858 100 50C100 77.6142 77.6142 100 50 100C22.3858 100 0 77.6142 0 50Z" fill="white"/>
<path opacity="0.5" fill-rule="evenodd" clip-rule="evenodd" d="M36.1048 42.6922C41.507 42.6527 46.9312 44.1585 50.7827 47.9469C54.6627 51.7632 56.7844 57.1984 56.3699 62.6248C55.9806 67.72 52.2316 71.5268 48.6994 75.2195C45.0477 79.0371 41.3808 83.5408 36.1048 83.8103C30.6662 84.0881 25.8366 80.5872 22.1542 76.5753C18.6408 72.7476 16.753 67.8197 16.659 62.6248C16.563 57.3244 17.938 51.9546 21.6399 48.16C25.3818 44.3243 30.7464 42.7313 36.1048 42.6922Z" fill="#F9BC4B"/>
<ellipse cx="67.65" cy="39.7504" rx="11.7708" ry="21.9181" transform="rotate(-15 67.65 39.7504)" stroke="#213950" stroke-width="2"/>
<path d="M71.1015 58.7073C76.5624 57.244 78.7805 47.8146 76.0559 37.646C73.3312 27.4775 66.6955 20.4204 61.2346 21.8837" stroke="#213950" stroke-width="2"/>
<path d="M32.8273 55.3851C31.1176 55.8432 29.0261 53.5812 28.1557 50.3329C27.2853 47.0846 27.9657 44.0799 29.6753 43.6218" stroke="#213950" stroke-width="2"/>
<path d="M57.9268 21.5046C54.7802 28.1248 42.4766 36.3588 31.8062 40.0018C30.2382 40.5372 29.2876 42.1755 29.7164 43.7759L32.4239 53.8802" stroke="#213950" stroke-width="2"/>
<path d="M68.3524 60.4132C62.3173 56.2533 47.545 55.2742 36.4826 57.4545C34.8571 57.7748 33.2147 56.8313 32.7858 55.2309L32.2213 53.1242" stroke="#213950" stroke-width="2"/>
<path d="M38.2912 57.0474L45.1374 71.807L48.4273 70.74L44.2483 56.425" stroke="#213950" stroke-width="2"/>
<path d="M39.7139 59.8036L44.8707 59.0034" stroke="#213950" stroke-width="2"/>
<path d="M55.6333 38.8888L57.3914 38.4317C58.4318 38.1612 59.5 38.7616 59.8098 39.791L60.9787 43.6751C61.2747 44.6587 60.7775 45.7066 59.8284 46.0994L57.6688 46.9933" stroke="#213950" stroke-width="2"/>
</svg>
