<svg width="24" height="24" viewBox="0 0 24 24" fill="none" xmlns="http://www.w3.org/2000/svg">
<path fill-rule="evenodd" clip-rule="evenodd" d="M13 3V7H11V3H13ZM12 14C13.1046 14 14 13.1046 14 12C14 10.8954 13.1046 10 12 10C10.8954 10 10 10.8954 10 12C10 13.1046 10.8954 14 12 14ZM12 16C14.2091 16 16 14.2091 16 12C16 9.79086 14.2091 8 12 8C9.79086 8 8 9.79086 8 12C8 14.2091 9.79086 16 12 16ZM13 21V17H11V21H13ZM21 13H17V11L21 11V13ZM3 13H7V11L3 11V13ZM15.1213 16.4142L16.5356 15L19.364 17.8284L17.9498 19.2426L15.1213 16.4142ZM4.22181 6.05023L7.05023 8.87866L8.46445 7.46445L5.63602 4.63602L4.22181 6.05023ZM17.9498 4.58582L15.1213 7.41424L16.5356 8.82846L19.364 6.00003L17.9498 4.58582ZM4.22187 17.9498L7.05029 15.1213L8.46451 16.5356L5.63608 19.364L4.22187 17.9498Z" fill="#727C89"/>
</svg>
