<svg width="32" height="32" viewBox="0 0 32 32" fill="none" xmlns="http://www.w3.org/2000/svg">
<path fill-rule="evenodd" clip-rule="evenodd" d="M9.125 4C8.57435 4 8.03793 4.22713 7.63612 4.64501C7.23303 5.06423 7 5.64088 7 6.25V21.7087C7.61885 21.2604 8.34696 21 9.125 21H25V4H9.125ZM5 26C5 25.9549 5.0005 25.9097 5.0015 25.8646C5.0005 25.8265 5 25.7883 5 25.75V6.25C5 5.13521 5.42545 4.05856 6.19446 3.25879C6.96475 2.45769 8.01804 2 9.125 2H26C26.5523 2 27 2.44772 27 3V22V29C27 29.5523 26.5523 30 26 30H9.125C8.01804 30 6.96475 29.5423 6.19446 28.7412C5.53618 28.0566 5.12964 27.1691 5.02622 26.2285C5.00907 26.1551 5 26.0786 5 26ZM25 28V23H9.125C8.65231 23 8.1317 23.2389 7.70332 23.7872C7.29419 24.3109 7.03026 25.0486 7.00244 25.8579C7.0282 26.4269 7.25691 26.9606 7.63612 27.355C8.03793 27.7729 8.57435 28 9.125 28H25ZM10 10H22V8H10V10ZM20 14H10V12H20V14ZM10 18H17V16H10V18Z" fill="#155AC4"/>
</svg>
