<svg width="24" height="24" viewBox="0 0 24 24" fill="none" xmlns="http://www.w3.org/2000/svg">
<path fill-rule="evenodd" clip-rule="evenodd" d="M8 9C8 7.89543 8.89543 7 10 7C11.1046 7 12 7.89543 12 9C12 10.1046 11.1046 11 10 11C8.89543 11 8 10.1046 8 9ZM10 5C7.79086 5 6 6.79086 6 9C6 11.2091 7.79086 13 10 13C12.2091 13 14 11.2091 14 9C14 6.79086 12.2091 5 10 5ZM6.75 14C5.7652 14 4.81477 14.3791 4.10931 15.0631C3.40281 15.7482 3 16.6841 3 17.6667V19H5V17.6667C5 17.2347 5.17666 16.814 5.5016 16.4989C5.82759 16.1828 6.27611 16 6.75 16H12.25C12.7239 16 13.1724 16.1828 13.4984 16.4989C13.8233 16.814 14 17.2347 14 17.6667V19H16V17.6667C16 16.6841 15.5972 15.7482 14.8907 15.0631C14.1852 14.3791 13.2348 14 12.25 14H6.75ZM18.2552 14.0331C19.0461 14.2418 19.7425 14.712 20.2377 15.3649C20.7325 16.0174 20.9994 16.8164 21 17.6364L21 19H19V17.6374C18.9996 17.2497 18.8732 16.8755 18.6441 16.5735C18.4153 16.2717 18.098 16.0601 17.7448 15.9669L18.2552 14.0331ZM15.7143 6.95833C16.0414 7.05583 16.3636 7.28739 16.6093 7.65585C16.8559 8.02578 17 8.49873 17 9.00001C17 9.50129 16.8559 9.97424 16.6093 10.3442C16.3636 10.7126 16.0414 10.9442 15.7143 11.0417L16.2857 12.9583C17.1028 12.7147 17.7948 12.1715 18.2734 11.4536C18.751 10.7371 19 9.87396 19 9.00001C19 8.12606 18.751 7.26289 18.2734 6.54645C17.7948 5.82855 17.1028 5.2853 16.2857 5.04169L15.7143 6.95833Z" fill="#727C89"/>
</svg>
