<svg width="100" height="100" viewBox="0 0 100 100" fill="none" xmlns="http://www.w3.org/2000/svg">
<path d="M0 50C0 22.3858 22.3858 0 50 0C77.6142 0 100 22.3858 100 50C100 77.6142 77.6142 100 50 100C22.3858 100 0 77.6142 0 50Z" fill="white"/>
<path opacity="0.5" fill-rule="evenodd" clip-rule="evenodd" d="M85.7137 36.7664C87.4546 43.0769 87.3761 49.9027 84.1068 55.6104C80.8134 61.3603 75.0552 65.5649 68.512 66.7981C62.3683 67.9561 56.6934 64.7735 51.2215 61.8085C45.5644 58.7432 39.0916 55.8775 37.1184 49.7874C35.0845 43.5098 37.7074 36.7482 41.2938 31.1676C44.7157 25.8432 49.9477 22.073 56.0577 20.3178C62.2918 18.5271 69.0694 18.4359 74.715 21.5672C80.4217 24.7324 83.9868 30.5069 85.7137 36.7664Z" fill="#F9BC4B"/>
<circle cx="59.5" cy="31.5" r="17.5" stroke="#213950" stroke-width="2"/>
<path d="M54.8049 28.5366C54.8049 26.1658 56.9069 24.2439 59.5 24.2439C62.093 24.2439 64.1951 26.1658 64.1951 28.5366C64.1951 29.9374 63.4612 31.1816 62.3257 31.9651C60.962 32.9061 59.5 34.1724 59.5 35.8293V37.9024" stroke="#213950" stroke-width="2"/>
<circle cx="59.5" cy="40.8902" r="1.28049" fill="#213950"/>
<path d="M48.7999 65V81H23.2V65" stroke="#213950" stroke-width="2" stroke-linecap="round" stroke-linejoin="round"/>
<path d="M52 57H20V65H52V57Z" stroke="#213950" stroke-width="2" stroke-linecap="round" stroke-linejoin="round"/>
<path d="M36 81V57" stroke="#213950" stroke-width="2" stroke-linecap="round" stroke-linejoin="round"/>
<path d="M36 57H28.8C27.7392 57 26.7218 56.5786 25.9716 55.8284C25.2215 55.0783 24.8 54.0609 24.8 53C24.8 51.9391 25.2215 50.9217 25.9716 50.1716C26.7218 49.4214 27.7392 49 28.8 49C34.4 49 36 57 36 57Z" stroke="#213950" stroke-width="2" stroke-linecap="round" stroke-linejoin="round"/>
<path d="M36 57H43.2C44.2609 57 45.2783 56.5786 46.0284 55.8284C46.7786 55.0783 47.2 54.0609 47.2 53C47.2 51.9391 46.7786 50.9217 46.0284 50.1716C45.2783 49.4214 44.2609 49 43.2 49C37.6 49 36 57 36 57Z" stroke="#213950" stroke-width="2" stroke-linecap="round" stroke-linejoin="round"/>
<path d="M56.5 68C61.5 67.5 71.5 63.4 71.5 51" stroke="#213950" stroke-width="2" stroke-linecap="round"/>
</svg>
