<svg width="100" height="100" viewBox="0 0 100 100" fill="none" xmlns="http://www.w3.org/2000/svg">
<path d="M0 50C0 22.3858 22.3858 0 50 0C77.6142 0 100 22.3858 100 50C100 77.6142 77.6142 100 50 100C22.3858 100 0 77.6142 0 50Z" fill="white"/>
<path opacity="0.5" fill-rule="evenodd" clip-rule="evenodd" d="M59.9991 57.0101C60.0443 63.1232 58.3237 69.2613 53.9951 73.6196C49.6347 78.0102 43.4244 80.4111 37.2242 79.942C31.4025 79.5016 27.0528 75.2592 22.8335 71.2622C18.4716 67.1299 13.3256 62.9805 13.0177 57.0101C12.7003 50.8559 16.7005 45.3907 21.2843 41.2237C25.6579 37.248 31.2886 35.1117 37.2242 35.0053C43.2804 34.8967 49.416 36.4526 53.7517 40.6417C58.1342 44.8761 59.9544 50.9465 59.9991 57.0101Z" fill="#F9BC4B"/>
<rect x="13" y="25" width="44" height="30" rx="4" stroke="#213950" stroke-width="2"/>
<path d="M39 55L48 62V55" stroke="#213950" stroke-width="2" stroke-linejoin="round"/>
<path d="M21 33H42" stroke="#213950" stroke-width="2"/>
<path d="M21 46H40" stroke="#213950" stroke-width="2"/>
<path d="M21 39H50" stroke="#213950" stroke-width="2"/>
<circle cx="74" cy="56" r="15" stroke="#213950" stroke-width="2"/>
<path d="M64 67L63 75L69.5 70.5" stroke="#213950" stroke-width="2" stroke-linejoin="round"/>
<path d="M70 52.7714C70 50.6885 71.7909 49 74 49C76.2091 49 78 50.6885 78 52.7714C78 53.8511 77.5188 54.8248 76.7476 55.5123C75.5108 56.6149 74 57.886 74 59.5429V61" stroke="#213950" stroke-width="2"/>
<circle cx="74" cy="64" r="1" fill="#213950"/>
</svg>
