<svg width="27" height="27" viewBox="0 0 27 27" fill="none" xmlns="http://www.w3.org/2000/svg">
<path fill-rule="evenodd" clip-rule="evenodd" d="M11.52 0.588413C11.6818 0.230222 12.0384 0 12.4314 0C13.7021 0 14.9239 0.496619 15.8272 1.3856C16.7311 2.27512 17.2419 3.48499 17.2419 4.74998V8.74994H23.4258C23.9345 8.74513 24.4387 8.84875 24.9039 9.05422C25.371 9.26052 25.7882 9.56487 26.126 9.94719C26.4639 10.3296 26.7141 10.7807 26.8584 11.2698C27.0027 11.7589 27.0373 12.2734 26.9595 12.7774L25.2068 24.0272C25.2067 24.0275 25.2066 24.0279 25.2066 24.0283C25.0771 24.8666 24.6448 25.6272 23.9937 26.1719C23.3442 26.7152 22.5201 27.0079 21.6729 26.9998H3.54031C2.60648 26.9998 1.70773 26.6349 1.04261 25.9804C0.376948 25.3253 0 24.4333 0 23.4999V14.7499C0 13.8164 0.376948 12.9245 1.04261 12.2694C1.70773 11.6149 2.60648 11.2499 3.54031 11.2499H6.70514L11.52 0.588413ZM8.35077 12.4653L13.0469 2.06674C13.5661 2.18079 14.0449 2.43762 14.4244 2.81108C14.9497 3.32808 15.2419 4.02585 15.2419 4.74998V9.74994C15.2419 10.3022 15.6896 10.7499 16.2419 10.7499H23.4309L23.4421 10.7499C23.6678 10.7474 23.8909 10.7932 24.0958 10.8837C24.3007 10.9742 24.4818 11.1068 24.6272 11.2715C24.7727 11.436 24.8791 11.6287 24.9401 11.8357C25.0012 12.0426 25.0157 12.2597 24.983 12.4723C24.983 12.4722 24.9829 12.4724 24.983 12.4723L23.2301 23.7226C23.1756 24.0761 22.9927 24.4017 22.7104 24.6378C22.4278 24.8742 22.0652 25.0041 21.6892 24.9999L8.35077 24.9998V12.4653ZM6.35077 24.9998V13.2499H3.54031C3.12668 13.2499 2.73315 13.4118 2.44547 13.6949C2.15833 13.9775 2 14.3573 2 14.7499V23.4999C2 23.8925 2.15833 24.2723 2.44547 24.5549C2.73315 24.838 3.12668 24.9998 3.54031 24.9998H6.35077Z" fill="#2FBD82"/>
</svg>
