<svg width="32" height="32" viewBox="0 0 32 32" fill="none" xmlns="http://www.w3.org/2000/svg">
<path fill-rule="evenodd" clip-rule="evenodd" d="M3 3C2.44772 3 2 3.44772 2 4V21V23.5V27.5C2 27.7739 2.11233 28.0358 2.31077 28.2245C2.50922 28.4133 2.7764 28.5124 3.04994 28.4988C4.66882 28.4178 7.25529 28.4426 9.71474 28.7783C10.9442 28.9461 12.1152 29.1882 13.1064 29.5213C14.1096 29.8585 14.8453 30.2617 15.2885 30.7027C15.3249 30.7396 15.3643 30.7738 15.4065 30.8049C15.4325 30.8241 15.4593 30.8419 15.4868 30.8583C15.6425 30.9514 15.8202 31 16 31C16.1049 31.0001 16.2104 30.9836 16.3128 30.9498C16.3952 30.9227 16.4743 30.8848 16.5479 30.8366C16.5653 30.8252 16.5823 30.8133 16.5989 30.8009C16.639 30.7709 16.6766 30.738 16.7115 30.7027C17.1547 30.2617 17.8904 29.8585 18.8936 29.5213C19.8848 29.1882 21.0558 28.9461 22.2853 28.7783C24.7447 28.4426 27.3312 28.4178 28.9501 28.4988C29.2236 28.5124 29.4908 28.4133 29.6892 28.2245C29.8877 28.0358 30 27.7739 30 27.5V23.5V21V4C30 3.44772 29.5523 3 29 3C22.927 3 18.1119 4.46181 16 5.39601C13.8881 4.46181 9.07298 3 3 3ZM28 21V5.01391C22.8517 5.157 18.8246 6.37176 17 7.14235V23.5V24.1305C17.4003 23.9378 17.8237 23.771 18.2564 23.6255C19.4068 23.2389 20.7108 22.9747 22.0147 22.7967C24.1384 22.5068 26.3326 22.4363 28 22.4664V21ZM28 24.4667C26.4146 24.4365 24.307 24.5023 22.2853 24.7783C21.0558 24.9461 19.8848 25.1882 18.8936 25.5213C18.0836 25.7936 17.4481 26.1088 17 26.4523V28.1305C17.4003 27.9378 17.8237 27.771 18.2564 27.6255C19.4068 27.2389 20.7108 26.9747 22.0147 26.7967C24.1384 26.5068 26.3326 26.4363 28 26.4664V24.4667ZM15 23.5V7.14235C13.1754 6.37176 9.14829 5.157 4 5.01391V21V22.4664C5.66737 22.4363 7.86158 22.5068 9.98526 22.7967C11.2892 22.9747 12.5932 23.2389 13.7436 23.6255C14.1763 23.771 14.5997 23.9378 15 24.1305V23.5ZM15 26.4523C14.5519 26.1088 13.9164 25.7936 13.1064 25.5213C12.1152 25.1882 10.9442 24.9461 9.71474 24.7783C7.69298 24.5023 5.58538 24.4365 4 24.4667V26.4664C5.66737 26.4363 7.86158 26.5068 9.98526 26.7967C11.2892 26.9747 12.5932 27.2389 13.7436 27.6255C14.1763 27.771 14.5997 27.9378 15 28.1305V26.4523ZM18.7664 11.0277C20.5565 10.5975 23.0288 10.168 25.943 10.0016L26.057 11.9984C23.2705 12.1575 20.9165 12.5679 19.2336 12.9723L18.7664 11.0277ZM25.943 16.0016C23.0288 16.168 20.5565 16.5975 18.7664 17.0277L19.2336 18.9723C20.9165 18.5679 23.2705 18.1575 26.057 17.9984L25.943 16.0016ZM13.2336 11.0277C11.4435 10.5975 8.97121 10.168 6.05701 10.0016L5.94299 11.9984C8.72948 12.1575 11.0835 12.5679 12.7664 12.9723L13.2336 11.0277ZM6.05701 16.0016C8.97121 16.168 11.4435 16.5975 13.2336 17.0277L12.7664 18.9723C11.0835 18.5679 8.72948 18.1575 5.94299 17.9984L6.05701 16.0016Z" fill="#727C89"/>
</svg>
