<svg width="24" height="24" viewBox="0 0 24 24" fill="none" xmlns="http://www.w3.org/2000/svg">
<path fill-rule="evenodd" clip-rule="evenodd" d="M4 3C3.44772 3 3 3.44772 3 4V18C3 18.2739 3.11233 18.5358 3.31077 18.7245C3.50922 18.9133 3.7764 19.0124 4.04994 18.9988C5.02779 18.9499 6.59503 18.965 8.08013 19.1677C8.82236 19.2691 9.51741 19.4137 10.0968 19.6085C10.6874 19.807 11.0755 20.0305 11.2885 20.2412C11.3249 20.2781 11.3644 20.3123 11.4065 20.3433C11.4325 20.3626 11.4594 20.3804 11.4869 20.3968C11.6426 20.4899 11.8202 20.5385 12 20.5385C12.1049 20.5385 12.2104 20.522 12.3128 20.4883C12.3836 20.465 12.4519 20.4337 12.5165 20.3948C12.545 20.3776 12.5726 20.359 12.599 20.3393C12.6391 20.3093 12.6767 20.2765 12.7115 20.2412C12.9245 20.0305 13.3126 19.807 13.9032 19.6085C14.4826 19.4137 15.1776 19.2691 15.9199 19.1677C17.405 18.965 18.9722 18.9499 19.9501 18.9988C20.2236 19.0124 20.4908 18.9133 20.6892 18.7245C20.8877 18.5358 21 18.2739 21 18V4C21 3.44772 20.5523 3 20 3C16.3521 3 13.42 3.84342 12 4.44032C10.58 3.84342 7.6479 3 4 3ZM13 6.19286V17.8071C13.0884 17.774 13.1772 17.7425 13.266 17.7127C14.0046 17.4645 14.8326 17.2976 15.6494 17.1861C16.8182 17.0266 18.0185 16.9732 19 16.9754V5.02297C16.2717 5.14822 14.1152 5.75893 13 6.19286ZM11 6.19286C9.88484 5.75893 7.72826 5.14822 5 5.02297V16.9754C5.98153 16.9732 7.18183 17.0266 8.35064 17.1861C9.16738 17.2976 9.99541 17.4645 10.734 17.7127C10.8228 17.7425 10.9116 17.774 11 17.8071V6.19286ZM13.6125 8.95076C14.7347 8.68111 16.2789 8.41313 18.0968 8.30933L18.2108 10.3061C16.5206 10.4026 15.0948 10.6515 14.0797 10.8954L13.6125 8.95076ZM18.0968 12.0016C16.2789 12.1055 14.7347 12.3734 13.6125 12.6431L14.0797 14.5877C15.0948 14.3438 16.5206 14.0949 18.2108 13.9984L18.0968 12.0016ZM10.3875 8.95076C9.26529 8.68111 7.72112 8.41313 5.9032 8.30933L5.78918 10.3061C7.47938 10.4026 8.90524 10.6515 9.92026 10.8954L10.3875 8.95076ZM5.9032 12.0016C7.72112 12.1055 9.26529 12.3734 10.3875 12.6431L9.92026 14.5877C8.90524 14.3438 7.47938 14.0949 5.78918 13.9984L5.9032 12.0016Z" fill="#727C89"/>
</svg>
