<svg width="25" height="26" viewBox="0 0 25 26" fill="none" xmlns="http://www.w3.org/2000/svg">
<path fill-rule="evenodd" clip-rule="evenodd" d="M23 6H21V4H19V2L21 2V0H23V2L25 2V4H23V6ZM12 5C9.79086 5 8 6.79086 8 9C8 11.2091 9.79086 13 12 13C14.2091 13 16 11.2091 16 9C16 6.79086 14.2091 5 12 5ZM6 9C6 5.68629 8.68629 3 12 3C15.3137 3 18 5.68629 18 9C18 12.3137 15.3137 15 12 15C8.68629 15 6 12.3137 6 9ZM1.91477 18.8442C3.13595 17.66 4.78585 17 6.5 17H17.5C19.2141 17 20.8641 17.66 22.0852 18.8442C23.3075 20.0294 24 21.6435 24 23.3333V26H22V23.3333C22 22.1942 21.5336 21.0952 20.6929 20.28C19.8512 19.4638 18.7032 19 17.5 19H6.5C5.29677 19 4.14878 19.4638 3.30706 20.28C2.46639 21.0952 2 22.1942 2 23.3333V26H0V23.3333C0 21.6435 0.692538 20.0294 1.91477 18.8442Z" fill="#F9BC4B"/>
</svg>
