<svg width="32" height="32" viewBox="0 0 32 32" fill="none" xmlns="http://www.w3.org/2000/svg">
<path d="M15.2771 9.45422C15.5559 8.84859 16.4461 8.84859 16.7249 9.45422L19.1697 14.7654L25.2807 15.3188C25.9697 15.3812 26.2504 16.2066 25.7339 16.6512L21.1762 20.5746L22.457 26.0634C22.6088 26.7139 21.8858 27.2274 21.2879 26.8937L16.001 23.9437L10.7115 26.8952C10.1139 27.2286 9.39127 26.7161 9.54212 26.0658L10.816 20.5746L6.26558 16.651C5.74968 16.2062 6.03061 15.3814 6.71925 15.319L12.8324 14.7654L15.2771 9.45422Z" stroke="#2FBD82" stroke-width="2" stroke-linecap="round" stroke-linejoin="round"/>
<path d="M16 6L16 2" stroke="#2FBD82" stroke-width="2"/>
<path d="M13 7L11 4.26794" stroke="#2FBD82" stroke-width="2"/>
<path d="M19 7L21 4.26794" stroke="#2FBD82" stroke-width="2"/>
</svg>
