<svg width="32" height="25" viewBox="0 0 32 25" fill="none" xmlns="http://www.w3.org/2000/svg">
<path fill-rule="evenodd" clip-rule="evenodd" d="M7.66669 6.33333C7.66669 3.9401 9.60679 2 12 2C14.3933 2 16.3334 3.9401 16.3334 6.33333C16.3334 8.72657 14.3933 10.6667 12 10.6667C9.60679 10.6667 7.66669 8.72657 7.66669 6.33333ZM12 0C8.50222 0 5.66669 2.83553 5.66669 6.33333C5.66669 9.83114 8.50222 12.6667 12 12.6667C15.4978 12.6667 18.3334 9.83114 18.3334 6.33333C18.3334 2.83553 15.4978 0 12 0ZM6.66665 16C4.98694 16 3.37603 16.6673 2.1883 17.855C1.00057 19.0427 0.333313 20.6536 0.333313 22.3333V25H2.33331V22.3333C2.33331 21.1841 2.78986 20.0819 3.60252 19.2692C4.41517 18.4565 5.51737 18 6.66665 18H17.3333C18.4826 18 19.5848 18.4565 20.3974 19.2692C21.2101 20.0819 21.6666 21.1841 21.6666 22.3333V25H23.6666V22.3333C23.6666 20.6536 22.9994 19.0427 21.8117 17.855C20.6239 16.6673 19.013 16 17.3333 16H6.66665ZM26.9167 16.2051C28.2754 16.5559 29.4791 17.348 30.3388 18.4571C31.1986 19.5661 31.6656 20.9293 31.6667 22.3326V22.3333V25H29.6667V22.3341V22.3338C29.6659 21.3737 29.3463 20.4412 28.7582 19.6824C28.1699 18.9236 27.3463 18.3816 26.4167 18.1416L26.9167 16.2051ZM21.0853 2.14209C22.0174 2.38075 22.8436 2.92285 23.4335 3.68293C24.0235 4.443 24.3438 5.37782 24.3438 6.34001C24.3438 7.30219 24.0235 8.23701 23.4335 8.99709C22.8436 9.75716 22.0174 10.2993 21.0853 10.5379L21.5813 12.4754C22.9437 12.1266 24.1512 11.3343 25.0134 10.2234C25.8757 9.11255 26.3438 7.74628 26.3438 6.34001C26.3438 4.93374 25.8757 3.56746 25.0134 2.45658C24.1512 1.3457 22.9437 0.5534 21.5813 0.20459L21.0853 2.14209Z" fill="#F9BC4B"/>
</svg>
