<svg width="32" height="32" viewBox="0 0 32 32" fill="none" xmlns="http://www.w3.org/2000/svg">
<path fill-rule="evenodd" clip-rule="evenodd" d="M10.375 4.5C9.81141 4.5 9.27091 4.72388 8.8724 5.1224C8.47388 5.52091 8.25 6.06141 8.25 6.625C8.25 7.18859 8.47388 7.72909 8.8724 8.1276C9.27091 8.52612 9.81141 8.75 10.375 8.75H14.6749C14.5045 8.26046 14.2675 7.68063 13.9519 7.10692C13.1511 5.65084 12.0064 4.5 10.375 4.5ZM6.25 6.625C6.25 7.37995 6.45696 8.11357 6.83945 8.75H3.5C2.94772 8.75 2.5 9.19772 2.5 9.75V16C2.5 16.5523 2.94772 17 3.5 17H5V28.5C5 29.0523 5.44772 29.5 6 29.5H16H26C26.5523 29.5 27 29.0523 27 28.5V17H28.5C29.0523 17 29.5 16.5523 29.5 16V9.75C29.5 9.19772 29.0523 8.75 28.5 8.75H25.1606C25.5431 8.11357 25.75 7.37995 25.75 6.625C25.75 5.53098 25.3154 4.48177 24.5418 3.70818C23.7682 2.9346 22.719 2.5 21.625 2.5C18.8814 2.5 17.2136 4.47416 16.2957 6.14308C16.1894 6.33632 16.091 6.52909 16 6.71896C15.909 6.52909 15.8106 6.33632 15.7043 6.14308C14.7864 4.47416 13.1186 2.5 10.375 2.5C9.28098 2.5 8.23177 2.9346 7.45818 3.70818C6.6846 4.48177 6.25 5.53098 6.25 6.625ZM17.3251 8.75H21.625C22.1886 8.75 22.7291 8.52612 23.1276 8.1276C23.5261 7.72909 23.75 7.18859 23.75 6.625C23.75 6.06141 23.5261 5.52091 23.1276 5.1224C22.7291 4.72388 22.1886 4.5 21.625 4.5C19.9936 4.5 18.8489 5.65084 18.0481 7.10692C17.7326 7.68063 17.4955 8.26046 17.3251 8.75ZM17 10.75V15H26H27.5V10.75H21.625H17ZM10.375 10.75H15V15H6H4.5V10.75H10.375ZM17 27.5H25V17H17V27.5ZM15 17V27.5H7V17H15Z" fill="#2FBD82"/>
</svg>
