<svg width="100" height="100" viewBox="0 0 100 100" fill="none" xmlns="http://www.w3.org/2000/svg">
<path d="M0 50C0 22.3858 22.3858 0 50 0C77.6142 0 100 22.3858 100 50C100 77.6142 77.6142 100 50 100C22.3858 100 0 77.6142 0 50Z" fill="white"/>
<path opacity="0.5" fill-rule="evenodd" clip-rule="evenodd" d="M86.7137 34.7664C88.4546 41.0769 88.3761 47.9027 85.1068 53.6104C81.8134 59.3603 76.0552 63.5649 69.512 64.7981C63.3683 65.9561 57.6934 62.7735 52.2215 59.8085C46.5644 56.7432 40.0916 53.8775 38.1184 47.7874C36.0845 41.5098 38.7074 34.7482 42.2938 29.1676C45.7157 23.8432 50.9477 20.073 57.0577 18.3178C63.2918 16.5271 70.0694 16.4359 75.715 19.5672C81.4217 22.7324 84.9868 28.5069 86.7137 34.7664Z" fill="#F9BC4B"/>
<path d="M68.4 53V76H31.6V53" stroke="#213950" stroke-width="2" stroke-linecap="round" stroke-linejoin="round"/>
<path d="M73 41.5H27V53H73V41.5Z" stroke="#213950" stroke-width="2" stroke-linecap="round" stroke-linejoin="round"/>
<path d="M50 76V41.5" stroke="#213950" stroke-width="2" stroke-linecap="round" stroke-linejoin="round"/>
<path d="M50 23L50 15" stroke="#213950" stroke-width="2" stroke-linecap="round" stroke-linejoin="round"/>
<path d="M42.5517 23.3301L38.5 19.2784" stroke="#213950" stroke-width="2" stroke-linecap="round" stroke-linejoin="round"/>
<path d="M57.9483 23.3301L62 19.2784" stroke="#213950" stroke-width="2" stroke-linecap="round" stroke-linejoin="round"/>
<path d="M50 41.5H39.65C38.125 41.5 36.6625 40.8942 35.5842 39.8159C34.5058 38.7375 33.9 37.275 33.9 35.75C33.9 34.225 34.5058 32.7625 35.5842 31.6841C36.6625 30.6058 38.125 30 39.65 30C47.7 30 50 41.5 50 41.5Z" stroke="#213950" stroke-width="2" stroke-linecap="round" stroke-linejoin="round"/>
<path d="M50 41.5H60.35C61.875 41.5 63.3375 40.8942 64.4159 39.8159C65.4942 38.7375 66.1 37.275 66.1 35.75C66.1 34.225 65.4942 32.7625 64.4159 31.6841C63.3375 30.6058 61.875 30 60.35 30C52.3 30 50 41.5 50 41.5Z" stroke="#213950" stroke-width="2" stroke-linecap="round" stroke-linejoin="round"/>
</svg>
