<svg width="100" height="100" viewBox="0 0 100 100" fill="none" xmlns="http://www.w3.org/2000/svg">
<path d="M0 50C0 22.3858 22.3858 0 50 0C77.6142 0 100 22.3858 100 50C100 77.6142 77.6142 100 50 100C22.3858 100 0 77.6142 0 50Z" fill="white"/>
<path opacity="0.5" fill-rule="evenodd" clip-rule="evenodd" d="M75.1884 31.2447C81.6137 34.5981 87.0829 39.814 89.238 46.7702C91.4091 53.7779 90.4681 61.6153 86.5279 67.8458C82.8283 73.6959 75.9671 75.8899 69.4353 78.0837C62.6824 80.3518 55.4756 83.4312 49.0535 80.4323C42.4338 77.3412 38.9371 70.113 37.1244 62.9958C35.3949 56.2053 36.2905 49.1218 39.481 42.8483C42.7363 36.4473 47.7784 30.8891 54.576 28.6801C61.4472 26.4473 68.8152 27.9185 75.1884 31.2447Z" fill="#F9BC4B"/>
<path d="M50.2895 77L19 45.7105L26.0132 36H73.4868L81.5789 45.7105L50.2895 77Z" stroke="#213950" stroke-width="2"/>
<path d="M19 45.7105H81.0395" stroke="#213950" stroke-width="2"/>
<path d="M26.0132 36L39.5 45.7105L50.2895 77" stroke="#213950" stroke-width="2"/>
<path d="M73.4868 36L61.0789 45.7105L50.2894 77" stroke="#213950" stroke-width="2"/>
<path d="M38.9605 45.7105L50.2895 36" stroke="#213950" stroke-width="2"/>
<path d="M61.6184 45.7105L50.2895 36" stroke="#213950" stroke-width="2"/>
<path d="M50 28L50 20" stroke="#213950" stroke-width="2" stroke-linecap="round" stroke-linejoin="round"/>
<path d="M42.5517 28.3301L38.5 24.2784" stroke="#213950" stroke-width="2" stroke-linecap="round" stroke-linejoin="round"/>
<path d="M57.9483 28.3301L62 24.2784" stroke="#213950" stroke-width="2" stroke-linecap="round" stroke-linejoin="round"/>
</svg>
