<svg width="215" height="203" viewBox="0 0 215 203" fill="none" xmlns="http://www.w3.org/2000/svg">
<path opacity="0.2" fill-rule="evenodd" clip-rule="evenodd" d="M279.68 140.681C286.821 159.694 284.88 181.221 278.689 200.564C272.644 219.452 259.465 234.739 245.175 248.489C231.084 262.047 214.953 272.822 196.594 279.555C177.049 286.723 155.286 296.088 135.871 288.576C116.483 281.076 112.539 255.02 97.123 241.073C80.5726 226.101 54.3556 223.18 42.6068 204.205C29.9335 183.737 20.0089 155.63 30.9368 134.179C42.3012 111.872 78.7045 117.417 96.028 99.3426C113.96 80.6334 104.841 37.25 129.958 30.8668C155.236 24.4427 170.919 61.0784 193.192 74.6495C208.389 83.9085 226.031 87.2234 240.174 98.0219C255.846 109.987 272.747 122.224 279.68 140.681Z" fill="#213950"/>
</svg>
