<svg width="157" height="186" viewBox="0 0 157 186" fill="none" xmlns="http://www.w3.org/2000/svg">
<path opacity="0.2" fill-rule="evenodd" clip-rule="evenodd" d="M321.215 92.1556C329.416 113.989 327.188 138.71 320.078 160.923C313.136 182.612 298.002 200.167 281.592 215.957C265.41 231.527 246.886 243.9 225.804 251.632C203.359 259.863 178.368 270.617 156.072 261.991C133.808 253.378 129.279 223.456 111.576 207.441C92.5706 190.248 62.4642 186.893 48.9724 165.103C34.4191 141.598 23.0221 109.322 35.5711 84.6891C48.6216 59.0721 90.4254 65.4399 110.319 44.6843C130.911 23.1995 120.439 -26.6199 149.282 -33.95C178.311 -41.3272 196.32 0.743561 221.898 16.3279C239.348 26.9605 259.608 30.7672 275.85 43.1677C293.846 56.9075 313.254 70.9599 321.215 92.1556Z" fill="#213950"/>
</svg>
