<svg width="24" height="24" viewBox="0 0 24 24" fill="none" xmlns="http://www.w3.org/2000/svg">
<path fill-rule="evenodd" clip-rule="evenodd" d="M6.05312 14.9128C4.65477 13.8984 3.65315 12.7329 3.154 11.8598C3.76421 11.0258 4.7795 9.92758 6.12059 8.98473C7.71386 7.86458 9.71368 7 12 7C14.2863 7 16.2861 7.86458 17.8794 8.98473C19.2205 9.92758 20.2358 11.0258 20.846 11.8598C20.3468 12.7329 19.3452 13.8984 17.9469 14.9128C16.3049 16.104 14.2334 17 12 17C9.7666 17 7.69511 16.104 6.05312 14.9128ZM12 5C9.19542 5 6.8013 6.06135 4.97032 7.34861C3.14619 8.63106 1.82795 10.1738 1.15367 11.2451C0.981742 11.5183 0.952242 11.8577 1.07446 12.1564C1.62036 13.4909 3.01859 15.1822 4.87871 16.5317C6.75944 17.896 9.23341 19 12 19C14.7666 19 17.2406 17.896 19.1213 16.5317C20.9814 15.1822 22.3796 13.4909 22.9255 12.1564C23.0478 11.8577 23.0183 11.5183 22.8463 11.2451C22.1721 10.1738 20.8538 8.63106 19.0297 7.34861C17.1987 6.06135 14.8046 5 12 5ZM13 12C13 12.5523 12.5523 13 12 13C11.4477 13 11 12.5523 11 12C11 11.4477 11.4477 11 12 11C12.5523 11 13 11.4477 13 12ZM15 12C15 13.6569 13.6569 15 12 15C10.3431 15 9 13.6569 9 12C9 10.3431 10.3431 9 12 9C13.6569 9 15 10.3431 15 12Z" fill="#213950"/>
</svg>
