<svg width="100" height="100" viewBox="0 0 100 100" fill="none" xmlns="http://www.w3.org/2000/svg">
<path d="M0 50C0 22.3858 22.3858 0 50 0C77.6142 0 100 22.3858 100 50C100 77.6142 77.6142 100 50 100C22.3858 100 0 77.6142 0 50Z" fill="white"/>
<path opacity="0.5" fill-rule="evenodd" clip-rule="evenodd" d="M35.8766 35.5169C43.0567 34.5289 50.5361 35.6131 56.322 40.0354C62.1507 44.4905 65.9231 51.4244 66.3198 58.7856C66.6923 65.6973 62.37 71.4599 58.316 77.0315C54.1249 82.7917 50.0336 89.4762 43.0615 90.7512C35.8748 92.0656 28.8378 88.1985 23.2378 83.4467C17.8948 78.9129 14.5222 72.6198 13.4893 65.6578C12.4355 58.5544 13.3264 51.103 17.5883 45.365C21.8963 39.5651 28.7547 36.4968 35.8766 35.5169Z" fill="#F9BC4B"/>
<path d="M60 24H68.25C69.3546 24 70.25 24.8954 70.25 26V74.5279C70.25 75.6325 69.3546 76.5279 68.25 76.5279H31C29.8954 76.5279 29 75.6325 29 74.5279V26C29 24.8954 29.8954 24 31 24H40" stroke="#213950" stroke-width="2"/>
<path d="M54.625 37.6664H65.625" stroke="#213950" stroke-width="2"/>
<path d="M34.625 54.6664H64.625" stroke="#213950" stroke-width="2"/>
<path d="M34.625 65H64.625" stroke="#213950" stroke-width="2"/>
<path d="M34.625 59.6664H59.625" stroke="#213950" stroke-width="2"/>
<path d="M54.625 41.6664H63.625" stroke="#213950" stroke-width="2"/>
<circle cx="43" cy="41" r="8" stroke="#213950" stroke-width="2"/>
<path d="M41 38.8857C41 37.8443 41.8954 37 43 37C44.1046 37 45 37.8443 45 38.8857C45 39.1699 44.9333 39.4394 44.8139 39.6811C44.2687 40.7846 43 41.7692 43 43V43" stroke="#213950" stroke-width="2"/>
<circle cx="43" cy="45" r="1" fill="#213950"/>
<rect x="40" y="21" width="20" height="6" rx="3" stroke="#213950" stroke-width="2"/>
</svg>
