<svg width="29" height="30" viewBox="0 0 29 30" fill="none" xmlns="http://www.w3.org/2000/svg">
<path fill-rule="evenodd" clip-rule="evenodd" d="M15.5 15C19.0899 15 22 12.0899 22 8.5C22 4.91015 19.0899 2 15.5 2C11.9101 2 9 4.91015 9 8.5C9 12.0899 11.9101 15 15.5 15ZM15.5 17C17.4869 17 19.3145 16.3183 20.7618 15.176L27.2929 21.7071L28.7071 20.2929L22.176 13.7618C23.3183 12.3145 24 10.4869 24 8.5C24 3.80558 20.1944 0 15.5 0C10.8056 0 7 3.80558 7 8.5C7 13.1944 10.8056 17 15.5 17ZM2 8C2 6.89543 2.89543 6 4 6H6V4H4C1.79086 4 0 5.79086 0 8V26C0 28.2091 1.79086 30 4 30H16C18.2091 30 20 28.2091 20 26V18.5H18V26C18 27.1046 17.1046 28 16 28H4C2.89543 28 2 27.1046 2 26V8ZM4 21H16V19H4V21ZM12 25H4V23H12V25Z" fill="#F9BC4B"/>
</svg>
