<svg width="28" height="28" viewBox="0 0 28 28" fill="none" xmlns="http://www.w3.org/2000/svg">
<path fill-rule="evenodd" clip-rule="evenodd" d="M8.375 2.5C7.81141 2.5 7.27091 2.72388 6.8724 3.1224C6.47388 3.52091 6.25 4.06141 6.25 4.625C6.25 5.18859 6.47388 5.72909 6.8724 6.1276C7.27091 6.52612 7.81141 6.75 8.375 6.75H12.6749C12.5045 6.26046 12.2675 5.68063 11.9519 5.10692C11.1511 3.65084 10.0064 2.5 8.375 2.5ZM4.25 4.625C4.25 5.37995 4.45696 6.11357 4.83945 6.75H1.5C0.947715 6.75 0.5 7.19772 0.5 7.75V14C0.5 14.5523 0.947715 15 1.5 15H3V26.5C3 27.0523 3.44772 27.5 4 27.5H14H24C24.5523 27.5 25 27.0523 25 26.5V15H26.5C27.0523 15 27.5 14.5523 27.5 14V7.75C27.5 7.19772 27.0523 6.75 26.5 6.75H23.1606C23.5431 6.11357 23.75 5.37995 23.75 4.625C23.75 3.53098 23.3154 2.48177 22.5418 1.70818C21.7682 0.934597 20.719 0.5 19.625 0.5C16.8814 0.5 15.2136 2.47416 14.2957 4.14308C14.1894 4.33632 14.091 4.52909 14 4.71896C13.909 4.52909 13.8106 4.33632 13.7043 4.14308C12.7864 2.47416 11.1186 0.5 8.375 0.5C7.28098 0.5 6.23177 0.934597 5.45818 1.70818C4.6846 2.48177 4.25 3.53098 4.25 4.625ZM15.3251 6.75H19.625C20.1886 6.75 20.7291 6.52612 21.1276 6.1276C21.5261 5.72909 21.75 5.18859 21.75 4.625C21.75 4.06141 21.5261 3.52091 21.1276 3.1224C20.7291 2.72388 20.1886 2.5 19.625 2.5C17.9936 2.5 16.8489 3.65084 16.0481 5.10692C15.7326 5.68063 15.4955 6.26046 15.3251 6.75ZM15 8.75V13H24H25.5V8.75H19.625H15ZM8.375 8.75H13V13H4H2.5V8.75H8.375ZM15 25.5H23V15H15V25.5ZM13 15V25.5H5V15H13Z" fill="#2FBD82"/>
</svg>
