<svg width="100" height="100" viewBox="0 0 100 100" fill="none" xmlns="http://www.w3.org/2000/svg">
<path d="M0 50C0 22.3858 22.3858 0 50 0C77.6142 0 100 22.3858 100 50C100 77.6142 77.6142 100 50 100C22.3858 100 0 77.6142 0 50Z" fill="white"/>
<path opacity="0.5" fill-rule="evenodd" clip-rule="evenodd" d="M33.1325 25.5774C40.7951 24.5231 48.7772 25.6801 54.9519 30.3996C61.1723 35.154 65.1982 42.554 65.6216 50.4098C66.0192 57.786 61.4063 63.9359 57.0799 69.8819C52.6072 76.0292 48.2409 83.1629 40.8003 84.5236C33.1306 85.9263 25.6207 81.7994 19.6444 76.7282C13.9424 71.8897 10.343 65.1737 9.2408 57.7439C8.11616 50.1631 9.06692 42.211 13.6152 36.0874C18.2127 29.8977 25.5321 26.6232 33.1325 25.5774Z" fill="#F9BC4B"/>
<path d="M78.5 28H43.5V69.5C43.5 75.5 38 78.5 34 78.5H68C75.2 78.5 78.5 73 78.5 68V28Z" stroke="#213950" stroke-width="2"/>
<path d="M26.5 39H22V68C22 73 25.3 78.5 32.5 78.5H36.5" stroke="#213950" stroke-width="2"/>
<path d="M33 73C35.3371 73 38.5506 71.2963 38.5506 67.8889C38.5506 65.3901 38.5506 26.6379 38.5506 22H71V28" stroke="#213950" stroke-width="2"/>
<path d="M33.1463 73C28.9317 73 27 69.8305 27 66.9492V33H39" stroke="#213950" stroke-width="2"/>
<rect x="51" y="35" width="20" height="10" rx="1" stroke="#213950" stroke-width="2"/>
<path d="M50 51H72" stroke="#213950" stroke-width="2"/>
<path d="M50 61H72" stroke="#213950" stroke-width="2"/>
<path d="M50 56H68" stroke="#213950" stroke-width="2"/>
<path d="M50 67H64" stroke="#213950" stroke-width="2"/>
</svg>
