<svg width="21" height="25" viewBox="0 0 21 25" fill="none" xmlns="http://www.w3.org/2000/svg">
<path fill-rule="evenodd" clip-rule="evenodd" d="M13 4C13 3.44772 13.4542 2.98834 13.9899 3.1229C14.7854 3.32275 15.533 3.76318 16.1404 4.42123C16.9991 5.35139 17.5 6.6369 17.5 8C17.5 9.3631 16.9991 10.6486 16.1404 11.5788C15.533 12.2368 14.7854 12.6772 13.9899 12.8771C13.4542 13.0117 13 12.5523 13 12V4ZM13.9967 15.9292C13.45 16.0073 13 16.4477 13 17V25L9 22V5C9 4.44772 8.55228 4 8 4L3 4L0 0H13C15.0296 0 16.9493 0.874543 18.3448 2.38639C19.7367 3.89419 20.5 5.91529 20.5 8C20.5 10.0847 19.7367 12.1058 18.3448 13.6136C17.1802 14.8753 15.6506 15.6931 13.9967 15.9292Z" fill="white"/>
</svg>
