<svg width="32" height="32" viewBox="0 0 32 32" fill="none" xmlns="http://www.w3.org/2000/svg">
<path fill-rule="evenodd" clip-rule="evenodd" d="M27 9H25V7H23V5L25 5V3H27V5L29 5V7H27V9ZM16 8C13.7909 8 12 9.79086 12 12C12 14.2091 13.7909 16 16 16C18.2091 16 20 14.2091 20 12C20 9.79086 18.2091 8 16 8ZM10 12C10 8.68629 12.6863 6 16 6C19.3137 6 22 8.68629 22 12C22 15.3137 19.3137 18 16 18C12.6863 18 10 15.3137 10 12ZM5.91477 21.8442C7.13595 20.66 8.78585 20 10.5 20H21.5C23.2141 20 24.8641 20.66 26.0852 21.8442C27.3075 23.0294 28 24.6435 28 26.3333V29H26V26.3333C26 25.1942 25.5336 24.0952 24.6929 23.28C23.8512 22.4638 22.7032 22 21.5 22H10.5C9.29677 22 8.14878 22.4638 7.30706 23.28C6.46639 24.0952 6 25.1942 6 26.3333V29H4V26.3333C4 24.6435 4.69254 23.0294 5.91477 21.8442Z" fill="#F9BC4B"/>
</svg>
