<svg width="24" height="24" viewBox="0 0 24 24" fill="none" xmlns="http://www.w3.org/2000/svg">
<path fill-rule="evenodd" clip-rule="evenodd" d="M8.14286 5C7.81834 5 7.51982 5.12096 7.30995 5.31684C7.10241 5.51055 7 5.75792 7 6C7 6.24208 7.10241 6.48945 7.30995 6.68316C7.51982 6.87904 7.81834 7 8.14286 7H10.5932C10.5179 6.83888 10.4321 6.67263 10.3349 6.50769C9.82014 5.63418 9.1216 5 8.14286 5ZM5 6C5 6.3462 5.06242 6.68369 5.17953 7H4C3.44772 7 3 7.44772 3 8V12C3 12.5523 3.44772 13 4 13H5V20C5 20.5523 5.44772 21 6 21H12H18C18.5523 21 19 20.5523 19 20V13H20C20.5523 13 21 12.5523 21 12V8C21 7.44772 20.5523 7 20 7H18.8205C18.9376 6.68369 19 6.3462 19 6C19 5.18122 18.6509 4.41117 18.0547 3.85473C17.4608 3.30047 16.6693 3 15.8572 3C13.8933 3 12.6764 4.2893 12 5.39574C11.3236 4.2893 10.1067 3 8.14286 3C7.33073 3 6.53916 3.30047 5.94531 3.85473C5.34912 4.41117 5 5.18122 5 6ZM13.4068 7H15.8572C16.1817 7 16.4802 6.87904 16.6901 6.68316C16.8976 6.48945 17 6.24208 17 6C17 5.75792 16.8976 5.51055 16.6901 5.31684C16.4802 5.12096 16.1817 5 15.8572 5C14.8784 5 14.1799 5.63418 13.6651 6.50769C13.5679 6.67263 13.4821 6.83888 13.4068 7ZM13 9V11H18H19V9H15.8572H13ZM8.14286 9H11V11H6H5V9H8.14286ZM13 19H17V13H13V19ZM11 13V19H7V13H11Z" fill="#727C89"/>
</svg>
