<svg width="32" height="32" viewBox="0 0 32 32" fill="none" xmlns="http://www.w3.org/2000/svg">
<path fill-rule="evenodd" clip-rule="evenodd" d="M7 2H25V8H26C27.6569 8 29 9.34315 29 11V15C29 16.6569 27.6569 18 26 18H24.1973C23.319 19.5183 21.7946 20.616 20 20.917V28H25V30H20H12H7V28H12V20.917C10.2054 20.616 8.68096 19.5183 7.80269 18H6C4.34315 18 3 16.6569 3 15V11C3 9.34315 4.34315 8 6 8H7V2ZM24.917 16H26C26.5523 16 27 15.5523 27 15V11C27 10.4477 26.5523 10 26 10H25V15C25 15.3407 24.9716 15.6748 24.917 16ZM7 15C7 15.3407 7.0284 15.6748 7.08296 16H6C5.44772 16 5 15.5523 5 15V11C5 10.4477 5.44772 10 6 10H7V15ZM14 28H18V21H14V28ZM23 15C23 17.2091 21.2091 19 19 19H13C10.7909 19 9 17.2091 9 15V4H23V15Z" fill="#727C89"/>
</svg>
