<svg width="514" height="238" viewBox="0 0 514 238" fill="none" xmlns="http://www.w3.org/2000/svg">
<path fill-rule="evenodd" clip-rule="evenodd" d="M399.5 68.8739C390.567 104.978 380.873 152.018 345.849 164.534C308.858 177.753 275.085 132.662 236.18 127.238C204.689 122.847 169.471 153.62 142.85 136.233C115.842 118.593 129.606 73.3146 112.118 46.2082C93.243 16.9518 49.0847 7.76894 38.5594 -25.4188C27.7668 -59.4491 38.9049 -98.0934 56.5022 -129.156C74.1554 -160.317 101.733 -189.323 136.433 -198.185C170.077 -206.776 201.459 -175.488 236.18 -175.041C270.226 -174.602 301.354 -203.621 334.453 -195.632C369.53 -187.166 407.222 -165.062 418.931 -130.93C430.891 -96.0672 396.411 -62.1033 392.844 -25.4188C389.741 6.4859 407.198 37.7568 399.5 68.8739Z" fill="#155AC4"/>
</svg>
