<svg width="314" height="338" viewBox="0 0 314 338" fill="none" xmlns="http://www.w3.org/2000/svg">
<path fill-rule="evenodd" clip-rule="evenodd" d="M436.682 218.727C447.822 248.387 444.795 281.969 435.137 312.144C425.707 341.609 405.148 365.457 382.854 386.907C360.872 408.058 335.708 424.866 307.068 435.37C276.579 446.552 242.629 461.16 212.341 449.443C182.096 437.742 175.943 397.094 151.894 375.338C126.076 351.981 85.1771 347.424 66.849 317.823C47.0786 285.893 31.5962 242.047 48.6437 208.584C66.3723 173.784 123.161 182.434 150.186 154.238C178.16 125.052 163.934 57.3739 203.117 47.4163C242.551 37.3946 267.016 94.5463 301.762 115.717C325.468 130.161 352.99 135.332 375.054 152.178C399.501 170.843 425.867 189.933 436.682 218.727Z" fill="#F9BC4B"/>
</svg>
