<svg width="102" height="64" viewBox="0 0 102 64" xmlns="http://www.w3.org/2000/svg" style="background:#087bac"><title>cc-amex</title><g fill="none" fill-rule="evenodd"><path fill="#087BAC" d="M0 0h102v64H0z"/><g fill-rule="nonzero" fill="#FFF"><path d="M7.012 30.988h4.281l.962-2.393h2.165l.962 2.393H23.8v-1.826L24.558 31h4.365l.746-1.863v1.85h20.925v-3.922h.41c.288 0 .372 0 .372.518v3.392H62.2v-.913a8.384 8.384 0 0 0 4.017.913h4.558l.974-2.393h2.165l.962 2.393h8.767v-2.257l1.335 2.27H92V16h-6.951v1.813l-.974-1.776h-7.18v1.776l-.89-1.776h-9.62a8.45 8.45 0 0 0-4.186.876v-.876h-6.71v.876a4.089 4.089 0 0 0-2.838-.876H28.382l-1.635 3.873-1.672-3.873h-7.66v1.776l-.854-1.776h-6.53L7 23.155l.012 7.833zm82.727-2.073h-3.608l-4.75-8.055v8.055h-5.099l-.914-2.467h-5.207l-.938 2.467h-2.91a5.194 5.194 0 0 1-3.608-1.233 5.466 5.466 0 0 1-1.335-4.108 5.807 5.807 0 0 1 1.347-4.194 4.991 4.991 0 0 1 3.8-1.234h2.405v2.307h-2.405a2.367 2.367 0 0 0-1.936.642 3.654 3.654 0 0 0-.722 2.467 3.77 3.77 0 0 0 .698 2.467c.489.408 1.115.603 1.743.543h1.13l3.524-8.45h3.777l4.245 10.164V18.122h3.812l4.402 7.487v-7.487h2.561l-.012 10.793zM60.095 18.171v10.744h-2.562V18.122l2.562.05zm-4.017 2.899c.014 1.226-.693 2.341-1.792 2.825.474.187.89.502 1.203.913.351.586.5 1.277.42 1.96v2.147h-2.525v-1.357a3.213 3.213 0 0 0-.408-2.084c-.361-.383-.914-.47-1.816-.47h-2.694v3.911h-2.502V18.122h5.76a5.809 5.809 0 0 1 3.031.518 2.482 2.482 0 0 1 1.263 2.38l.06.05zm-11.797 7.845h-8.419V18.122h8.419v2.245h-5.857v1.924h5.712V24.5h-5.712v2.147h5.857v2.27zm-10.234 0h-2.61v-8.45l-3.608 8.45h-2.2L22.02 20.49v8.425h-5.1l-.962-2.393H10.74l-.95 2.393H7.072l4.474-10.744h3.728l4.257 10.177V18.122h4.089l3.271 7.29 3.019-7.29h4.173l-.036 10.793zm40.455-4.638L72.77 20.01l-1.72 4.268h3.452zm-21.647-1.702c-.376.176-.79.253-1.202.222H48.61v-2.43h3.079c.41-.033.82.03 1.202.185.338.186.54.557.517.95.027.416-.172.814-.517 1.036l-.036.037zM15.13 24.24l-1.72-4.268-1.708 4.268h3.428zM54.62 39.698c0 2.968-2.15 3.596-4.337 3.596h-3.106v3.632h-4.779l-3.07-3.546-3.214 3.546h-9.856V36.151h10.011l3.059 3.51 3.166-3.51h7.944c1.972 0 4.194.567 4.194 3.535l-.012.012zM34.848 44.61H28.73v-2.093h5.52v-2.192h-5.46V38.38h6.236l2.712 3.116-2.891 3.115zm9.868 1.232l-3.811-4.372 3.81-4.236v8.608zm5.698-4.815H47.19V38.38h3.25c.895 0 1.517.37 1.517 1.318 0 .948-.598 1.404-1.542 1.404v-.074zm16.726-4.852h8.363v2.229h-5.83v1.946h5.686v2.191h-5.686v2.13h5.83v2.254H67.14v-10.75zm-3.142 5.75c.473.178.887.49 1.195.9a3.17 3.17 0 0 1 .406 1.958v2.142h-2.497v-1.379c0-.652.06-1.6-.406-2.093-.466-.493-.92-.48-1.816-.48h-2.664v3.952h-2.461V36.151H61.5a5.943 5.943 0 0 1 2.999.505 2.48 2.48 0 0 1 1.266 2.39c.036 1.232-.66 2.363-1.756 2.856l-.012.025zm-1.493-1.354a2.327 2.327 0 0 1-1.195.222h-3.023V38.33h3.059c.407-.04.817.024 1.194.185.34.194.54.573.514.973.017.41-.178.8-.514 1.022l-.035.061zM85 41.163a3.05 3.05 0 0 1 .74 2.278c0 2.316-1.398 3.387-3.906 3.387h-4.85v-2.241h4.778a1.46 1.46 0 0 0 1.027-.271.963.963 0 0 0 .287-.702.924.924 0 0 0-.299-.714 1.274 1.274 0 0 0-.884-.247c-2.389-.074-5.244.074-5.244-3.312 0-1.552.943-3.19 3.584-3.19h4.993v2.29h-4.563a1.688 1.688 0 0 0-1.004.198.846.846 0 0 0-.37.776.811.811 0 0 0 .55.788c.309.096.632.138.955.123h1.338a3.977 3.977 0 0 1 2.844.862l.024-.025zm9.903 4.323a3.841 3.841 0 0 1-3.309 1.44h-4.779v-2.34h4.78c.355.041.712-.055 1.003-.27a.95.95 0 0 0 .298-.702.912.912 0 0 0-.298-.714 1.274 1.274 0 0 0-.884-.247c-2.39-.074-5.257.074-5.257-3.312 0-1.552.968-3.19 3.584-3.19H95v-2.13h-4.611a5.047 5.047 0 0 0-3.119.887v-.887h-6.81a4.676 4.676 0 0 0-2.974.887v-.887H65.312v.887a6.336 6.336 0 0 0-3.357-.887H53.94v.887a5.53 5.53 0 0 0-3.513-.887h-9.008l-2.054 2.303-1.924-2.303H24v14.974h13.142l2.114-2.327 1.995 2.327h8.1v-3.522h.8a8.273 8.273 0 0 0 3.465-.517v4.04h6.69v-3.904h.323c.418 0 .454 0 .454.443v3.46h20.31a5.723 5.723 0 0 0 3.38-.948v.948h6.452a8.48 8.48 0 0 0 3.644-.69l.035-2.82zm0-7.081H90.4c-.342-.04-.688.029-.991.197a.859.859 0 0 0-.37.776c-.01.36.215.683.55.788.313.097.64.139.967.123h1.338a3.93 3.93 0 0 1 2.831.862c.08.086.157.176.227.27l-.048-3.016z"/></g></g></svg>