<svg width="102" height="64" viewBox="0 0 102 64" xmlns="http://www.w3.org/2000/svg" style="background:#fff"><title>cc-mastercard</title><g fill-rule="nonzero" fill="none"><path d="M30.878 56.73V53.5a1.871 1.871 0 0 0-.529-1.482 1.9 1.9 0 0 0-1.478-.564 2.142 2.142 0 0 0-1.844.915 1.902 1.902 0 0 0-1.735-.915 1.849 1.849 0 0 0-1.573.754v-.646h-1.03v5.169h1.03v-2.962a1.2 1.2 0 0 1 .33-.979 1.22 1.22 0 0 1 .971-.367c.76 0 1.194.485 1.194 1.346v2.962h1.03v-2.962a1.2 1.2 0 0 1 .33-.979 1.22 1.22 0 0 1 .972-.367c.76 0 1.193.485 1.193 1.346v2.962h1.139zM47.8 51.616h-1.898v-1.561h-1.03v1.561h-1.086v.916h1.085v2.423c0 1.184.434 1.884 1.736 1.884.494-.01.978-.139 1.41-.376l-.325-.916a1.794 1.794 0 0 1-.977.27.762.762 0 0 1-.616-.236.75.75 0 0 1-.197-.626v-2.477H47.8v-.862zm9.654-.161a1.63 1.63 0 0 0-1.41.754v-.646h-1.03v5.169h1.03v-2.908c0-.861.434-1.4 1.14-1.4.237.01.474.046.704.108l.326-.97a3.686 3.686 0 0 0-.76-.107zm-14.59.538a3.742 3.742 0 0 0-2.115-.538c-1.302 0-2.115.592-2.115 1.615 0 .862.597 1.346 1.735 1.508l.543.054c.596.107.976.323.976.592 0 .377-.434.646-1.247.646a2.873 2.873 0 0 1-1.736-.538l-.542.807a3.948 3.948 0 0 0 2.223.647c1.52 0 2.333-.7 2.333-1.67 0-.969-.651-1.346-1.79-1.507l-.543-.054c-.488-.054-.922-.216-.922-.539 0-.323.434-.646 1.03-.646a3.933 3.933 0 0 1 1.628.431l.542-.808zm15.783 2.154a2.531 2.531 0 0 0 .745 1.953 2.57 2.57 0 0 0 1.967.74 2.725 2.725 0 0 0 1.844-.593l-.542-.808a2.18 2.18 0 0 1-1.356.485 1.734 1.734 0 0 1-1.604-1.723c0-.902.699-1.652 1.604-1.723a2.18 2.18 0 0 1 1.356.485l.542-.808a2.725 2.725 0 0 0-1.844-.592 2.44 2.44 0 0 0-1.972.654 2.403 2.403 0 0 0-.74 1.93zm-7.322-2.692c-1.518 0-2.549 1.077-2.549 2.692a2.52 2.52 0 0 0 .723 1.936 2.56 2.56 0 0 0 1.935.756 3.335 3.335 0 0 0 2.115-.7l-.542-.753a2.604 2.604 0 0 1-1.519.538 1.52 1.52 0 0 1-1.573-1.346h3.851v-.43c0-1.616-.976-2.693-2.44-2.693zm0 .97c.355-.017.701.112.958.356.256.245.4.583.398.935h-2.82a1.39 1.39 0 0 1 1.464-1.292zm-14.047 1.722v-2.584h-1.03v.646a2.002 2.002 0 0 0-1.682-.754 2.702 2.702 0 0 0-2.712 2.692 2.702 2.702 0 0 0 2.712 2.692 2.002 2.002 0 0 0 1.681-.753v.646h1.031v-2.585zm-4.23 0a1.623 1.623 0 0 1 1.694-1.506 1.62 1.62 0 0 1 1.556 1.647 1.622 1.622 0 0 1-1.623 1.582 1.6 1.6 0 0 1-1.203-.5 1.576 1.576 0 0 1-.425-1.223zm40.08-2.692a1.63 1.63 0 0 0-1.41.754v-.646h-1.03v5.169h1.03v-2.908c0-.861.435-1.4 1.14-1.4.238.01.475.046.705.108l.325-.97a3.686 3.686 0 0 0-.76-.107zm-4.013 2.692v-2.584h-1.03v.646a2.002 2.002 0 0 0-1.682-.754 2.702 2.702 0 0 0-2.711 2.692 2.702 2.702 0 0 0 2.711 2.692 2.002 2.002 0 0 0 1.682-.753v.646h1.03v-2.585zm-4.176 0a1.623 1.623 0 0 1 1.695-1.506 1.62 1.62 0 0 1 1.555 1.647 1.622 1.622 0 0 1-1.623 1.582c-1.03.054-1.627-.754-1.627-1.723zm14.698 0v-4.63h-1.03v2.692a2.002 2.002 0 0 0-1.682-.754 2.702 2.702 0 0 0-2.711 2.692 2.702 2.702 0 0 0 2.711 2.692 2.002 2.002 0 0 0 1.682-.753v.646h1.03v-2.585zm-4.23 0A1.623 1.623 0 0 1 77.1 52.64a1.62 1.62 0 0 1 1.556 1.647 1.622 1.622 0 0 1-1.623 1.582 1.6 1.6 0 0 1-1.202-.5 1.576 1.576 0 0 1-.425-1.223z" fill="#000"/><path fill="#FF5F00" d="M41.671 12.362h18.82v30.477h-18.82z"/><path d="M43.624 27.6a19.387 19.387 0 0 1 7.43-15.238c-6.724-5.25-16.106-5.542-23.149-.723-7.043 4.82-10.106 13.628-7.558 21.735 2.547 8.106 10.113 13.623 18.667 13.61a19.496 19.496 0 0 0 12.04-4.146 19.387 19.387 0 0 1-7.43-15.238z" fill="#EB001B"/><path d="M82.675 27.6c-.009 7.412-4.273 14.17-10.987 17.411a19.642 19.642 0 0 1-20.58-2.173 19.376 19.376 0 0 0 7.43-15.238c0-5.94-2.736-11.554-7.43-15.238a19.642 19.642 0 0 1 20.58-2.173c6.714 3.24 10.978 10 10.987 17.411z" fill="#F79E1B"/></g></svg>