<svg width="102" height="64" viewBox="0 0 102 64" xmlns="http://www.w3.org/2000/svg" style="background:#fff"><title>cc-visa</title><path d="M50.115 20.46l-5.277 25.145h-6.384l5.278-25.146h6.383zm26.857 16.237l3.36-9.444 1.933 9.444h-5.293zm7.126 8.908H90L84.843 20.46h-5.445c-1.227 0-2.261.726-2.72 1.844L67.1 45.605h6.704l1.331-3.755h8.189l.774 3.755zm-16.665-8.209c.027-6.636-9.002-7.004-8.942-9.97.02-.9.862-1.86 2.707-2.105.914-.12 3.436-.218 6.296 1.125l1.118-5.335C67.075 20.545 65.099 20 62.64 20c-6.311 0-10.75 3.416-10.786 8.312-.04 3.62 3.171 5.639 5.586 6.844 2.49 1.232 3.324 2.023 3.312 3.124-.018 1.687-1.986 2.434-3.818 2.462-3.212.051-5.073-.884-6.556-1.59l-1.159 5.514c1.494.696 4.247 1.303 7.097 1.334 6.709 0 11.096-3.376 11.116-8.604zM40.994 20.459L30.651 45.605h-6.747l-5.09-20.068c-.31-1.234-.578-1.688-1.517-2.209-1.535-.85-4.069-1.644-6.297-2.139l.15-.73h10.863c1.384 0 2.629.939 2.945 2.563l2.689 14.552 6.64-17.115h6.707z" fill="#182E66" fill-rule="evenodd"/></svg>